<?xml version="1.0" encoding="UTF-8" standalone="no"?>
<svg xmlns="http://www.w3.org/2000/svg" width="1533.75" height="785" version="1.1" viewBox="0 0 1533.75 785.00001" xmlns:xlink="http://www.w3.org/1999/xlink">
<style>.neutralcolor{
    stroke: #000;
    stroke-width: 1;
    fill: #726b68;
	fill-rule="evenodd";
    }</style>
	<style>.player1color{
        stroke: #000;
        stroke-width: 1;
        fill: #F12621;
    	fill-rule="evenodd";
        }</style>
    <style>.player1color:hover{
        stroke: #000;
        stroke-width: 1;
        fill: #FF7976;
    	fill-rule="evenodd";
        }</style>
	<style>.player2color{
        stroke: #000;
        stroke-width: 1;
        fill: #F9CB1D;
    	fill-rule="evenodd";
        }</style>
    <style>.player2color:hover{
        stroke: #000;
        stroke-width: 1;
        fill: #FFE273;
    	fill-rule="evenodd";
        }</style>
	<style>.player3color{
        stroke: #000;
        stroke-width: 1;
        fill: #3CB8EB;
    	fill-rule="evenodd";
        }</style>
    <style>.player3color:hover{
        stroke: #000;
        stroke-width: 1;
        fill: #92D7F5;
       	fill-rule="evenodd";
        }</style>
	<style>.player4color{
        stroke: #000;
        stroke-width: 1;
        fill: #FD7221;
    	fill-rule="evenodd";
        }</style>
    <style>.player4color:hover{
        stroke: #000;
        stroke-width: 1;
        fill: #FFA875;
    	fill-rule="evenodd";
        }</style>
	<style>.player5color{
        stroke: #000;
        stroke-width: 1;
        fill: #A752AF;
    	fill-rule="evenodd";
        }</style>
    <style>.player5color:hover{
        stroke: #000;
        stroke-width: 1;
        fill: #E3B4E8;
    	fill-rule="evenodd";
        }</style>
	<style>.player6color{
        stroke: #000;
        stroke-width: 1;
        fill: #6DE051;
    	fill-rule="evenodd";
        }</style>
    <style>.player6color:hover{
        stroke: #000;
        stroke-width: 1;
        fill: #B6F5A6;
    	fill-rule="evenodd";
        }</style>
 <g id="layer22">
  <rect id="EuropeBadge" height="34.286" width="25" y="155.08" x="611.36" class="player1color"/>
  <text id="EuropeBadgeTag" style="word-spacing:0px;letter-spacing:0px" xml:space="preserve" font-size="30px" line-height="125%" y="182.90056" x="614.01984" font-family="sans-serif" fill="#000000"><tspan id="tspan4316" x="614.01984" y="182.90056">5</tspan></text>
  <rect id="AfricaBadge" height="34.286" width="25" y="481.85" x="708.86" class="player2color"/>
  <text id="AfricaBadgeTag" style="word-spacing:0px;letter-spacing:0px" xml:space="preserve" font-size="30px" line-height="125%" y="509.89926" x="711.7323" font-family="sans-serif" fill="#000000"><tspan id="tspan4335" x="711.7323" y="509.89926">3</tspan></text>
  <rect id="AustraliaBadge" height="34.286" width="25" y="530.2" x="1229" class="player3color"/>
  <text id="AustraliaBadgeTag" style="word-spacing:0px;letter-spacing:0px" xml:space="preserve" font-size="30px" line-height="125%" y="558.47211" x="1231.7502" font-family="sans-serif" fill="#000000"><tspan id="tspan4354" x="1231.7502" y="558.47211">2</tspan></text>
  <rect id="AsiaBadge" height="34.286" width="25" y="184.72" x="1396.7" class="player4color"/>
  <text id="AsiaBadgeTag" style="word-spacing:0px;letter-spacing:0px" xml:space="preserve" font-size="30px" line-height="125%" y="212.7729" x="1399.4575" font-family="sans-serif" fill="#000000"><tspan id="tspan4364" x="1399.4575" y="212.7729">7</tspan></text>
  <rect id="NorthAmericaBadge" height="34.286" width="25" y="257.46" x="355.21" class="player5color"/>
  <rect id="SouthAmerciaBadge" height="34.286" width="25" y="587.78" x="283.49" class="player6color"/>
  <text id="NorthAmericaBadgeTag" style="word-spacing:0px;letter-spacing:0px" xml:space="preserve" font-size="30px" line-height="125%" y="285.27682" x="357.86578" font-family="sans-serif" fill="#000000"><tspan id="tspan4380" x="357.86578" y="285.27682">5</tspan></text>
  <text id="SouthAmerciaBadgeTag" style="word-spacing:0px;letter-spacing:0px" xml:space="preserve" font-size="30px" line-height="125%" y="616.05084" x="286.2475" font-family="sans-serif" fill="#000000"><tspan id="tspan4384" x="286.2475" y="616.05084">2</tspan></text>
 </g>
 <g id="layer21" stroke="#000" fill="none">
  <g stroke-width="6">
   <path id="path5253" d="m617.46 390.79-125.52 93.69"/>
   <path id="path5255" d="m677.81 247.73v16.92"/>
   <path id="path5257" d="m699.11 170v14.464"/>
   <path id="path5259" d="m730.89 127.86-4.4643 34.286"/>
   <path id="path5261" d="m693.75 153.93 34.286 6.6071"/>
   <path id="path5263" d="m729.46 125.18-33.393 31.25"/>
   <path id="path5265" d="m640.36 102.14 42.679 38.929"/>
   <path id="path5267" d="m730.71 115.71-1.4286-0.17857-82.679-19.643"/>
   <path id="path5269" d="m623.04 98.75-18.22-21.071"/>
   <path id="path5271" d="m513.16 56.175-77.78 83.085"/>
   <path id="path5273" d="m488.91 42.285-163.14 102.78"/>
   <path id="path5275" d="m379.56 56.933 94.71-18.688"/>
  </g>
  <path id="path5277" d="m29.421 126.76h-29.421" stroke-width="6.0259"/>
  <g stroke-width="6">
   <path id="path5279" d="m942.98 539.28-43.44-65.91"/>
   <path id="path5281" d="m923.78 572.11h-56.316"/>
   <path id="path5283" d="m910 354.11-16.25 15.536"/>
   <path id="path5285" d="m805.54 248.75v28.214"/>
   <path id="path5287" d="m1371.8 234.09h-64.902"/>
   <path id="path5289" d="m1334.9 202.9 33.082 29.8"/>
  </g>
  <path id="path5291" d="m1401.8 150.12h132.33" stroke-width="6.0115"/>
  <g stroke-width="6">
   <path id="path5293" d="m1335.7 515.29v36.113"/>
   <path id="path5295" d="m1392.1 478.67v50.003"/>
   <path id="path5297" d="m1330.6 483.09h61.367"/>
   <path id="path5299" d="m1393.6 481.58-47.603 59.22"/>
   <path id="path5301" d="m1283.9 442.5-38.393-43.036"/>
  </g>
 </g>
 <g id="Europe">
  <path id="path4156" class="player1color" d="m714.18 170.32 2.7779 4.7982 10.354 5.0508 8.5863 2.7779-7.5761 12.627 6.3134 15.152-6.3134 3.7881-10.607-1.7678-4.2931 3.283 1.2627 4.7982-11.112 6.0609-6.566 9.3439 2.7779 3.283-8.5863 7.8287-6.8185 3.0304-9.849 0.50508-3.5355 1.5152-9.3439-4.7982h-7.3236l-1.0102-14.647 2.7779-7.5761-0.25254-9.5964 5.0508-4.7982 18.94 2.7779 10.859-1.5152 3.5355-10.859-3.283-9.3439-10.354-4.7982 0.25254-3.7881 6.3134-0.75762 10.102-2.5254h5.3033l4.7982-4.2932 2.5254-4.2931z"/>
  <path id="path4158" class="player2color" d="m732.14 189.55 2.6786 1.4286 1.1607-1.6071h5.5357l6.0714 3.4821 4.2857-3.125 6.5179-1.6071 4.5536-5.1786 14.286 0.26785 2.0536 5-5 4.6429 0.44642 2.1429 6.9643 4.4643 3.75 0.26786 2.3214-1.6964 5.1786 0.44643 4.4643-1.6964 2.3214-4.1964 2.6786-4.0178-0.89286-1.3393 0.17857-7.8571 2.1429-1.5179 0.625-2.7679 3.3036-1.875v-3.0357l-2.4107-2.6786v-8.3929l-1.6071-0.625-4.5536-5 0.0893-4.5536-7.2322-0.0893-1.9643 2.3214-5.5357 2.1429-2.1428-0.0893-1.6964-2.2321-3.3929-0.0893-10.179 5.2678h-2.7679l-5.625-3.8393-3.75 1.4286-4.6429 0.89286-3.8393-5-1.1607-1.3393 0.17858-5 1.1607-0.80357 0.17857-5.3571-3.0357 0.0893-3.125 2.3214-2.5 3.9286 1.5178 4.2857 1.0714 6.6071-2.0536 2.3214-8.125 0.625-4.0179 1.6071-0.98214 2.4107-3.6607 3.3036-2.2322 0.625-5.4464 5 2.67 4.9157 10.038 4.9876 8.902 2.7148z"/>
  <path id="path4164" class="player3color" d="m822.95 72.5-11.518-2.5893h-15l-14.286 5.5357-8.8393 2.3214-6.6964 6.6964-10.089 10.179-9.5536 7.6786-11.071 5.8928-7.0536 3.5714-3.125 6.5179 1.3393 7.3214 2.9464 4.2857 3.8393 2.9464 6.0714-0.0893 4.1071-2.3214 2.7679-2.8572 2.1428 0.0893 3.5714 5.1786 2.7679 5.8929 0.98214 3.6607 3.9286 3.4822h4.1072l5-2.9464 3.125-4.4643 1.6964-6.875 5.2679-3.5714 3.5714-3.4821v-2.0536l-5.2679-1.5179-3.75-5.5357v-2.3214l3.125-4.5536 7.8572-3.3036 6.1607-6.5179 0.44643-1.9643 4.2857-3.2143 4.375 0.08929 1.6072 1.7857 0.17857 2.1429-1.3393 3.4822-3.3036 2.9464-0.625 2.1428-4.375 5v5.2679l1.6071 2.5893 6.7857 2.9464h8.2143l5.0893-1.4286 4.8214 0.0893 6.3393-3.8393 3.6607-5.0893-0.0893-3.6607-5.5357-6.1607-0.0893-6.7857-4.1071-4.1964v-2.5h1.875l0.0893-3.4821-4.1072-3.75-0.0893-4.5536 3.3036-2.3214h2.7679z"/>
  <path id="path4166" class="player4color" d="m822.68 74.196h-2.4107l-3.4821 2.3214 0.0893 4.5536 4.0625 3.8393-0.0893 3.3482-1.8304 0.08929 0.0446 2.5 3.9732 4.1964 0.22321 6.8304 5.4018 6.1161 0.0893 3.75-3.6161 5.0893-6.0714 3.7054 5.1339 0.98215 1.7857 1.7857-5.2679 3.3929-6.4286 0.53571-0.80357-1.25-8.2143-0.0893-3.2143 1.6964v1.5179l4.7322 5.1786v1.7857l-2.6786 2.2321-1.6964-0.0893-2.8572-2.2321-4.9107 0.0893-1.3393 3.2143 0.0893 4.1072 1.4286 1.6071-0.17857 1.9643-1.4286 1.7857 6.0689 0.0433-0.0631 4.6404 4.5141 5.0192 1.5468 0.72605 0.0947 8.3338 2.4307 2.6516-0.0947 2.9673-3.1883 1.8625-0.72605 2.841-2.0834 1.5152-0.15783 7.8918 0.85231 1.3258-0.88388 1.1996 14.647 0.12627 6.3134-2.2728 4.5141 4.009 3.4093 9.5333 4.5141 3.4408 3.7249-3.6618 1.4205-2.841 7.8287-4.0406 2.1466 2.2728 0.12627 1.5152 3.0304 0.12627 1.1364 1.389-2.3991 2.9042 6.8185 3.9143 7.3236-3.283 1.6415-0.12626v-1.7678h-3.7881l-3.4093-2.5254 6.9448-3.283 8.2075-4.1669 2.2728 0.50508-0.50507 2.3991-1.5152 2.5254 0.63134 1.1364 0.25254 1.2627-3.4093 5.9346 3.4093 2.0203 4.9245 2.9042 6.4397 3.7881 5.8084 2.7779 0.50508 3.0304 1.2627 1.5152 0.12627 1.2627 6.3134 3.4093 0.75762 2.1466 2.3991 3.6618 5.6821 3.6618 3.7881 3.5355 6.4397 0.37881 2.2728-2.3991 5.8084-0.12627 2.3991 4.5457 2.1466 0.12627-0.25254-5.177 1.6415-2.0203 2.1466 0.12627v-2.1466l-1.6415-1.894h-1.2627l-1.389-4.7982-9.0914-8.46-1.1364-5.3033-3.6618-1.6415-1.1364-2.2728v-1.6415l2.0203-2.5254 4.5457-3.1567 3.1567-2.9042-3.1567-3.7881-4.1669-3.283-3.283-4.1669-3.9143-1.7678v-4.9245l2.6516-3.1567 1.5152 0.12627 2.0203 1.389 2.0203-0.12627v-2.3991l2.9042-5.4296 7.7024-2.5254 5.177 0.88388 6.1872 2.0203 6.566 3.7881 5.0508-1.1364 4.9245-1.2627 4.7982 1.6415 4.2932 1.7678 2.0203 0.25254 2.9042-2.3991 1.7678-2.5254-2.7779-3.6618-3.1567-1.5152-6.1872-6.4397v-3.9143l1.5152-0.88388v-2.6516l-6.0609-1.0102-0.63134 1.7678h-4.7982l-2.2728-2.0203 0.88388-1.2627h5.5558l-0.63134-5.9346-5.6821-0.12627-4.5457-2.6516-0.12627-2.3991 2.9042-4.9245-4.5457-6.3134-0.12627-8.7126-4.7982-4.1669-2.5254-3.9144 0.25254-8.3338 7.5761-6.0609 8.7126-5.0508v-2.6517l-4.7982-4.5457-1.1364-5.6821-8.9651-2.1466-7.955-3.1567h-3.7881l-1.6415 2.0203 2.5254 2.2728 5.3033 0.63135 2.0203 1.894-1.1364 1.5152-1.894 0.12627-4.672-0.25254-8.5863 2.0203h-5.6821l-1.6415-2.7779-6.0609 0.25254-5.8084 2.1466-6.3135 4.1669-5.5558 2.0203-2.6516-0.37881-2.3991-1.894 0.75762-3.1567-7.8287-0.63135-0.88388 3.1567 2.2728 2.0203 0.75762 2.2728-11.364 3.7881-2.9042 2.2728 1.6415 2.2728-2.2728 1.2627-3.283 0.63135-5.9346-2.2728-2.2728 1.0102 2.3991 1.6415 3.5355 1.6415-1.389 2.1466-3.6618 1.0102-6.9448-2.5254-4.672-5.5558-1.1364-3.1567-6.0609-3.1567-0.12626-2.1466 1.389-0.37881 4.5457-0.12627 7.5762 2.1466 7.5761 2.5254 5.4296-0.63134 4.4194-1.7678 2.0203-1.894-0.88388-3.5355-6.0609-1.7678-17.678-5.0508-5.5558-0.50508-4.1669 1.389-1.5152-1.6415-4.4194-2.5254-3.8411-1.88z"/>
  <g id="layer3" class="player5color">
   <path id="path4152" d="m685.89 132.44 7.3236 5.0508-4.5457 5.0508 13.637 17.678 4.5457 0.25254 2.2728 4.0406-6.3135 3.7881 1.5152 2.7779-26.769 5.0508 10.102-7.3236-7.3236-3.283 3.0305-6.566 4.7982-0.75762v-9.3439h-7.0711l-0.25253-10.102z"/>
   <path id="path4154" d="m659.38 152.39 5.8084-0.25254 2.0203-3.5355 8.5863-0.50508-2.2728 14.9-13.637 6.566-3.283-4.0406 3.7881-7.3236z"/>
  </g>
  <g id="layer4" class="player6color">
   <path id="path4160" d="m732.11 189.45-3.7881 5.9978 6.124 15.089 5.0508-2.5254h4.4826l3.4093 5.7452 2.336 3.8512 2.5254 0.94702 2.5885 2.9042 2.4622 0.50507 1.5784 2.0203 2.2728 0.82075 4.7982 2.2728 3.1567 2.0834 2.7779 3.283 0.63134 2.0203 2.1466 1.2627-0.82074 1.7678-0.88389 0.82075 0.56821 4.4826 1.6415 0.0631 3.9775-3.9143v-3.6618l-1.5152-0.82075-0.37881-2.7779 0.88388-0.94702 3.6618-0.0631 0.50507 1.0102 4.3563 0.0631-0.12627-1.8309-4.3563-2.5254-7.955-3.4093-4.4826-4.1669-5.5558-4.1038-0.88388-2.1466-3.9775-3.5355-3.0304-2.2097-0.69448-4.9245 2.336-1.2627 2.8411-0.56821 1.4521 0.56821 0.18941 3.5987 2.841 1.2627 5.3664 1.7678 5.4927 5.7452 2.6516 1.3258 4.672 0.69448 3.9143 3.1567 2.7779 4.6088 0.63134 7.6393 2.9673 4.7351 5.177 2.8411 5.6821 0.1894 0.0631 2.9673-5.0508-0.3788 1.7678 4.9876 2.3991 3.0936 3.7249 1.8309 1.7046-1.4521 0.3788-3.2199 1.3258-3.0304-0.69448-2.2728-2.0203-4.4194-2.4622-4.6088 2.7148-2.4622 2.1466 0.31567 4.23-2.3991 2.2728-1.3258 3.9775 0.25254 1.5152 0.63135 1.1364-5.6821 2.7148-1.7678 3.283 0.0631 2.5885-6.9448 2.6517-8.7757-4.5457-3.4093-1.8309-5.619-1.5784-3.8512-4.3563-4.1037-6.3766 2.2728h-5.9346-8.7126l-4.0406 6.6923-4.6088 1.8309-5.2402-0.3788-2.2097 1.6415-3.5987-0.31567-7.1342-4.4194-0.44194-2.0834 4.8614-4.672-1.9572-4.9245-14.268-0.3788-4.672 5.3033-6.4397 1.5152-4.4194 3.0936-5.9978-3.4724h-5.5558l-1.1996 1.5784z"/>
   <path id="path4162" d="m758.3 243.3 3.5714-0.0446 0.98215-1.1607 3.0357 0.13393 1.6518 0.84822 4.1518 0.3125v2.6786l-1.3839 4.1071-1.875 0.26786-9.9554-5.0446z"/>
  </g>
  <path id="path4871" class="neutralcolor" d="m649.02 94.018-4.9107-1.7857-2.8571 0.44643-3.75 1.6964-3.6607 0.17857-1.1607-1.0714-4.6428 0.26786-3.3036 1.875-6.6071 1.5179-2.0536 4.5536 5.4464 0.89285 5.3571 3.3036 3.5714 0.98214 4.1071-1.3393 8.75-2.5 5.2679-3.8393 2.7679-1.3393v-1.6964z"/>
 </g>
 <g id="Australia">
  <path id="path5004" onclick="parent.clickRegion('Australia')" class="neutralcolor" d="m1381 673.17 23.661-65.134h-63.214l17.098-64.821-7.5-5.8036-5.8482 1.0268-5.625 3.0804-4.8215 8.2589-5.6239 0.74156v2.2728l2.3991 1.2627-1.2627 2.9042-3.9143-2.3991h-2.9042l-3.6618 8.9651-5.5558 6.1872-4.672 2.2728h-8.5863l-26.138 11.364-4.5457 9.5964 0.3788 10.48-1.7677 11.49v12.753l2.7779 5.9346v4.672l-2.7779 6.3135-5.6821 5.8084 1.1364 3.5355 6.8185 2.9042h3.5355l14.647-6.4397 17.804-1.389 15.026-7.1973 20.834-3.6618h7.955l7.7024 5.0508 4.1669 12.248h2.9041l1.0102-3.5355 9.3439-6.8185 3.1567 2.6516-6.6922 5.9346-2.2729 2.2728v2.5254h3.1568l1.7677-3.6618h1.389v4.672l2.9042 3.6618v2.9042l-2.7779 2.7779v3.283l2.6516 1.1364z"/>
  <g id="layer12" class="neutralcolor">
   <path id="path5006" d="m1387.1 688.75v8.3482l-2.2321 3.0357v4.4196l6.6964 2.1429 14.688-13.571-1.4286-3.2143h-12.098z"/>
   <path id="path5008" d="m1358.6 543.26-17.124 64.783h63.106l-23.592 65.021 3.4409 2.2571 5.6189 2.9831h2.2097l2.3992-3.2199h3.9774l4.2378 5.4529 5.3572-3.75 6.25-4.1071h4.8214l3.3879 1.0784 1.894-1.894 3.4093-5.9346 7.5761-5.8084 6.566-9.7227 9.3439-4.9245 7.5762-9.2176 2.3991-8.3338 4.9245-5.5558 2.6516-17.046v-4.2932l-2.2728-3.283-7.3236-7.8287-7.3236-17.93-9.2177-8.9651 2.6517-6.566v-5.6821l-2.2728-9.7227-6.8186-4.7982-2.9042-14.773h-3.6618l-4.0406 9.4702-1.2627 15.279-6.4397 9.5964-5.3033 3.7881-6.6923-6.3134-10.607-6.0609-3.0304-4.7982v-3.5355l7.1973-7.955-2.1466-2.6516-11.364-3.7881h-4.2931l-6.8185 5.0508h-4.9245l-7.955 9.3439z"/>
  </g>
  <g id="layer13" class="neutralcolor">
   <path id="path4980" d="m1359.7 444.07-3.1567 5.4296-0.6313 6.9448 2.9041 3.9144 2.836-0.75989 1.4572-2.7756-1.7678-4.672 3.6618-7.3236z"/>
   <path id="path4982" d="m1359.7 474v3.5355l3.7881 1.2627h3.9143l3.9144-1.2627v-2.0203l-4.9245-1.2627z"/>
   <path id="path4984" d="m1412.9 466.79-14.018 7.7679-1.5179 4.2857-5.8928-6.25-3.8393-10.536h-6.25l-5.3572 2.3214v1.6964l11.072 5.2678-3.3929 2.2322v6.5178h9.375l18.75 9.1964 4.0179 8.5714-4.4643 2.8571-2.0536 1.7857v2.4107h10.982l4.2857 5 9.7321 1.9643 8.0357-9.5536 8.8393 1.4286 4.8214 7.3214 14.286 9.0179 7.4107 1.1607v-1.7857l-8.8393-7.0536-5.9822-7.1428-5.4464-5.7143 2.6786-2.0536v-2.9464l-2.5893-5.1786-6.875-2.5-3.125-4.6429-6.5179-2.4107z"/>
   <path id="path4986" d="m1479 472.77h-3.125v2.2321l6.1607 3.0357 4.0178 4.1964 1.875 3.3929h1.875v-4.375z"/>
   <path id="path4988" d="m1483.1 484.29-6.6964 5.5357-4.7322 0.98214-4.5535 1.25v2.0536l4.8214 2.4107h3.0357l2.4107-1.1607 4.2857-3.6607 3.4822-3.3929v-3.9286z"/>
   <path id="path4990" d="m1492.7 489.2v5.0893l1.4285 3.0357 4.1072 3.8393 2.1428-2.5893-3.3035-3.4822-1.3393-5.625z"/>
   <path id="path4992" d="m1505.8 496.79h-4.1072v1.7857l4.5536 3.9286h2.9464z"/>
   <path id="path4994" d="m1508.3 504.82h-4.5536v1.9643l2.9464 4.2857h4.8215v-2.8572z"/>
   <path id="path4996" d="m1514.9 501.7h-3.0357v3.3928l4.2857 4.4643h3.3929v-2.5893z"/>
   <path id="path4998" d="m1524.6 506.34h-2.7679v5.3572l1.5179 1.5178v2.1429h3.0357v-4.4643l-1.9862-1.1467z"/>
   <path id="path5000" d="m1519 511.7h-4.1072v2.3214l3.3036 3.5714h3.3928v-2.8572z"/>
   <path id="path5002" d="m1526.3 516.88h-3.3036v1.9643l3.0357 2.9464h2.1429v-3.0357z"/>
  </g>
  <g id="layer14" class="neutralcolor">
   <path id="path4946" d="m1311.9 429.17-7.8287-8.46h-3.6618l-2.9042 3.0305-5.6821 6.0609-6.6922 2.5254-2.6517 7.3236-9.0913 3.5355-3.7881 7.7024-3.5356-3.0305h-2.6516l-2.5254 3.9143v3.9143l6.3135 19.951 11.996 2.1466h4.2932l9.2176 2.5254 4.7982-2.6516 6.061-13.006 1.6415-7.955 3.1567-2.9042 3.6618-1.7678-2.6517-4.672-2.9615-5.1296v-4.7194z"/>
   <path id="path4948" d="m1322.8 450.64-5.5559 5.4296-1.6415 4.2932v8.9651l-4.5457 6.0609 1.389 5.0508 2.5254 1.5152v1.894l-1.5153 1.5152v2.6516l1.7678 2.0203 4.7982-1.0102v-3.1567l-2.2728-6.1872 3.5355-5.5558 3.283 3.6618 2.9042 6.4397 3.4093 1.0102v-7.1973l-3.0305-6.0609 5.1771-6.1872h2.6516v-2.7779h-5.6821l-5.8084 2.9042-4.9245-3.7881 2.9042-5.4296 3.9144-1.6415h4.9244l5.0508 3.9144 5.5559-2.6516 4.0406-5.4296-2.6849-1.5501-5.7752 4.0755-4.0406-1.6415z"/>
   <path id="path4950" d="m1344.8 401.77-1.8941 6.4397-4.9245 3.5355h-7.8286l-1.6415 4.5457h4.0406l0.7576-0.75761 2.3991-0.37881 4.0406 10.228h8.46l-3.0304-3.7881v-2.7779h2.9042l1.7677 3.0305 2.0203-0.25254v-5.5558l-4.0406-9.2176v-4.9245z"/>
   <path id="path4952" d="m1313.5 395.08-7.1973 7.0711v1.894l-3.9143 3.4093v2.7779h3.4092l4.672-3.7881v-2.7779l3.283-2.5254z"/>
   <path id="path4954" d="m1330.4 399.63-2.2728 2.7779v2.3991l2.1465 3.1567 2.5254-1.389 1.2627-3.283z"/>
   <path id="path4956" d="m1339.6 395.71-3.1567-0.12627-0.1262 1.6415 0.8838 3.7881 2.3991 2.1466 1.1365-3.0305z"/>
   <path id="path4958" d="m1324.7 392.05-1.2627 2.6516-0.1263 1.1364 2.6517 2.7779h1.894l2.0203-4.4194v-2.3991z"/>
   <path id="path4960" d="m1318.9 383.09h-1.3889v3.1567l3.4092 3.9143h1.7678l0.2525-2.7779z"/>
   <path id="path4962" d="m1330.9 387.76v2.0203h3.6618v-1.894z"/>
   <path id="path4964" d="m1340.2 388.01h-2.6517l1.389 4.2932 3.9143 4.0406h4.1669v-2.0203z"/>
   <path id="path4966" d="m1320.3 354.3h-7.0711v8.5863l-1.894 3.1567v3.4093l2.1465 5.8084 6.3135 5.5558 6.3135 3.283h9.4701l-0.3788-2.6516-2.6516-2.9042h-6.8186l-5.4295-5.0508 3.9143-8.8388z"/>
   <path id="path4968" d="m1340.6 506.83-7.7024 9.0914h4.7982l10.228-6.8185h6.3135l0.1262-2.0203-4.4194-1.2627z"/>
   <path id="path4970" d="m1327.5 505.57h-10.48v1.894l2.7779 2.9042h3.4093l7.3236-1.389z"/>
   <path id="path4972" d="m1316.4 512.26h-4.4194l0.3326 1.2412 6.1071 2.9256 0.6314-2.6516z"/>
   <path id="path4974" d="m1310.4 505.31h-12.122v3.1567l3.1567 1.7678h3.9143l0.8839-1.1364 4.1669 0.12626-0.1263-3.5355z"/>
   <path id="path4976" d="m1270.3 496.98h-11.364l-2.1466-2.5254-4.2931-0.75761-5.8084-0.25254-4.0406 2.3991v3.1567l10.354 3.7881h12.501l3.283 2.1466 17.046 1.7678 5.1771 0.50508 1.894-0.63135-0.2525-1.6415-6.9448-3.283-5.6822-0.75761-4.2931-5.0508h-3.9143z"/>
   <path id="path4978" d="m1228.7 453.92-14.521-9.0914-3.6618-7.3236-4.672-2.7779-11.743-7.1973-4.7982-0.12627 2.7779 6.4397 17.551 22.223 10.733 16.794 10.354 12.627 6.9448 4.7982 3.7881 0.12627 4.4194-5.6821-1.6415-9.849-7.5761-6.1872-3.0305-5.4296-3.6618-2.3991 2.3991-2.1466z"/>
  </g>
 </g>
 <g id="Africa">
  <path id="path4934" class="neutralcolor" d="m711.15 250.88-10.102 2.0203-12.627 8.0812h-8.3338l-7.8287-4.0406-3.6606 0.98085-6.4409 7.858-9.3439 4.7982-5.0508 9.3439v7.3236l-9.0914 8.8388-14.142 11.617-7.3236 14.9-8.8388 13.637v3.7881l3.283 4.7982 2.0203 7.3236v5.0508l-3.5355 10.354-3.283 2.7779-0.47577 1.7756 2.7486 5.548-1.5152 5.3033-0.47578 1.7756 4.0113 6.3056h3.7881l9.5964 12.627 1.5152 6.0609 13.637 14.9 7.8287 5.3033 6.3135 2.7779 18.183-4.7982h3.7881l8.3338 2.2728 25.001-9.5964h4.7982l7.8287 3.7881 1.5152 3.7881v3.5355h15.405l4.7982 6.0609 1.9324 7.2118h31.655l1.0102-2.4136-0.25254-1.7678-4.5457-3.0305-4.5457-10.102v-2.7779l4.7982-8.3338 11.743-1.894 5.5558-6.0609 10.607-5.0508 11.364-8.2075-4.1669-9.2176v-10.228l4.9245-5.9346h3.4093v-21.971l-34.598-19.193h-19.572l-7.955-3.1567-9.9753-7.1973-2.1466-5.9346v-25.633l3.7881-4.9245 0.63135-5.5558 6.8185-6.0609-6.1872-5.9346 2.5254-4.5457v-4.0406l-1.0102-5.4296-3.9143-3.1567h-2.5254l-6.8185 3.5355h-24.496z"/>
  <path id="path4936" class="neutralcolor" d="m808.63 272.35h-9.3439l-2.9042 3.283v3.7881 3.0305l-4.2931 4.672-6.9448-3.283-10.48-1.5152-3.283-7.0711-12.122-4.2932-5.4296-0.59978-6.6923 5.9978-0.61622 5.697-3.6607 4.7321v25.714l2.0536 5.9375 9.8661 7.2321 7.9464 3.0357h19.643l34.598 19.33 3.9286-3.1696v-11.295h49.643l6.1504-6.8019-7.1326-16.234-7.4107-11.339-1.7857-4.1964-2.6786-1.4286v-1.7857l1.4286-1.7857 2.6786 2.7679 2.3214 1.25v1.7857l3.8393 4.5536h0.80357v-6.25h2.8572l-5.5357-11.786h-8.8393l-3.125-1.6072h-5.3572l-4.8214 1.7857h-10.536l-12.411-3.125z"/>
  <path id="path4938" class="neutralcolor" d="m812.73 395.3-11.238 8.1759-10.638 5.1455-5.5243 5.9978-11.743 1.9256-4.7982 8.2706v2.8411l4.6088 10.165 4.3878 2.9989 0.22098 1.7362-0.94702 2.2097h-31.524l-1.942 6.5713-2.5837 9.7174v5.1139l2.336 5.0508 11.301 10.67 3.4724 11.112h22.476l2.5254 6.8185 2.5885 4.5457h5.1139l4.5457-1.9572 2.3991-5.2402h7.1342l2.3991 2.2097v13.89l2.841 6.9448 1.1996 0.94702h14.268l6.5029 4.2932 4.4826-0.0631 5.5558 6.5028h6.7554v-3.1567l-7.3236-4.4194-1.4521-3.9143v-4.8614l3.1567-8.46 8.7757-4.1669-6.3134-11.743v-7.4499l4.1669-3.5355 3.2199-3.9775v-5.619l1.1364-4.0406 2.5885-2.6516h2.9042l8.0812-7.0079 4.3563-4.1038 2.5885-3.4093v-7.7656l-3.8512-6.2503h-5.6821l-10.228 2.0203-5.9346-3.0936-1.8309-2.5254h-2.0834l-3.0936 2.7148h-3.0936l-4.7982-5.4927v-5.177l-5.9978-4.1669-2.4622-5.6821-2.7148-2.3991-4.7351-1.8309-2.2097-8.6494z"/>
  <path id="path4940" class="neutralcolor" d="m852 502.85-8.681 4.1669-3.1567 8.5232v4.8929l1.4521 3.7881 7.3552 4.5457v2.8726h-6.7238l-5.5243-6.2188h-4.5457l-6.566-4.1984h-14.205l-1.2627-1.0102-2.8726-7.0395v-13.826l-2.336-2.1781h-7.1973l-2.3676 5.1455-4.4826 2.0203h-5.0508l-2.7464-4.5141-2.4622-6.787h-22.381l0.1894 3.6934 4.0406 5.9662 0.78918 0.75761v2.1782 10.085l2.6279 5 0.56562 2.1109-8.0656 11.818-4.0179 13.125v7.0536l1.5179 6.0714 7.5893 14.286 4.6429 14.643 2.7679 5.5357v11.25l0.53571 6.6964 5.4464 5.8929 3.75 7.5 7.0536 11.161v9.6429l3.5714 5.1786h10.714l5.3571-1.9643h5.7143l6.0714 2.1428 15.714-8.5714 10.19-10.37 16.786-17.857v-2.5l-2.6786-3.75 2.5-8.0357 8.5714-3.75 5.3572-4.2857v-8.5714l-3.3929-8.0357v-4.2857l8.9286-9.6428 3.2143-5.5357 16.786-10 3.93-8.57-1.25-9.11-0.35714-11.429-14.464 5.1786h-15.714v9.6429l5.1786 4.6428v9.2857l-3.3929 5-3.9286-1.6071v-7.8572l-6.9643-5 1.6072-5.7143v-12.857l-3.3929-10z"/>
  <path id="path4942" class="neutralcolor" d="m870.49 333.53h-49.509v11.317l-3.9286 3.1027v21.83h-3.5268l-4.8438 6.1161v10.312l4.0179 9.1071 3.4152 5.7366 2.1875 8.683 4.7545 1.7857 2.7009 2.5 2.4777 5.6696 6.0268 4.1741v5.3125l4.6652 5.2232h3.0804l3.1696-2.6116h2.0536l1.8973 2.5223 5.8928 3.058 10.268-1.9866h5.6473l3.8393 6.2277v7.7902l-2.5 3.3482-12.567 11.161h-2.8348l-2.5893 2.6116-1.1607 4.0625v5.625l-3.2143 4.0402-4.1295 3.4152v7.5l6.2277 11.719 10.335 6.4509 3.3929 9.9554v12.902l-1.6518 5.6473 7.0089 5.067v7.7679l3.9062 1.6741 3.3929-5.0223v-9.2188l-5.1339-4.6875v-9.6429h15.737l14.353-5.2009-6.0268-13.393-2.3214-9.1071 1.7857-10 5.5357-9.8214 15.357-18.036 7.5-6.6072 15-12.321 18.75-36.25v-6.7857l-1.7857-5.1786-9.8214 4.6428-17.143 3.3929h-5.1786l-6.25-3.0357-1.25-7.1429-5-6.6071-11.25-10.714-4.4643-2.3214-1.0714-9.2857-10.179-11.25-1.4286-4.6429v-8.2143l-7.5315-9.1707z"/>
  <path id="path4944" class="neutralcolor" d="m952.07 545.34v-10.985l-2.5254-6.3134h-2.0203l-7.1973 11.869-7.3236 6.8185-9.2176 2.9042-2.3991 5.3033v17.425l-7.0711 9.849v7.7024l3.0305 9.9753 5.4296 3.0304h3.5355l7.5761-2.5254 5.3033-14.521z"/>
 </g>
 <g id="Asia">
  <path id="path5018" class="neutralcolor" d="m1299.1 336.47h-36.25l-10.893-5.3571h-9.4643l-10.357-3.0357h-11.072l-2.3214 1.6072v1.7857l2.3982 1.6642-6.566 4.1669-10.985-2.7779h-5.1771l-5.9346 3.283h-3.0305l-20.077-11.869h-17.551l-4.7982 2.2728h-4.5457l-9.3439-3.9143h-4.2931l-4.7983 2.6516h-3.9143l-8.2075-4.1669h-4.9245l-0.8839 1.5152 1.6955 3.2907 11.652 5.4911v2.5l-2.4107 2.0536v3.2143h-4.1072l-2.0089 1.8304v1.6071l2.5446 3.4821h2.7679l9.565 12.265v3.4093l12.753 5.8084 14.521 10.985 7.5762 3.6618 1.3889 10.102h16.162l3.4092-5.8084h6.061l4.4194 4.4194 2.3991-1.1364h5.177l4.7982 4.672v2.5254l11.869 9.0914h13.258l21.971 5.177h13.89v-6.4397l-5.0508-4.0406v-5.0508l3.6618-3.283h5.8084l1.6415-2.6516h5.5559l2.9041-3.0305-4.5456-5.4296 3.788-6.1872h12.122 4.4194l-5.1771-4.7982-1.1364-3.283 2.2729-2.1466h5.4295l2.1466-2.5254h2.3991 10.228l-2.5254-2.1466v-6.566h13.511l-4.6719-4.7982h-4.2932l-0.1262-2.3991 5.6821-2.6517v-2.3991l-8.7126-1.2627-8.3338-2.2728z" transform="translate(0 -267.36)"/>
  <path id="path5024" class="neutralcolor" d="m1216.3 407.74-11.786-9.0737v-2.5446l-4.7992-4.5871h-5.2008l-2.3884 1.0045-4.3974-4.308h-6.0491l-3.5268 5.7589h-16.116l-1.4063-10.089-7.5446-3.6161-14.397-11.094-1.5625-0.58035-2.9241 3.9732v2.5893l6.5848 4.7768v2.8572l-2.9465 1.875v4.7321h4.8215l4.5535 6.0714-1.6071 1.5179h-3.9286l-2.5893-1.7857-2.1428 1.9643v2.4107l-2.9464 3.3036h-2.5l-0.4465-1.4286h-5.7143l-2.6785 2.3214v2.2321l2.0982 2.0982v11.83l2.6339 3.125-1.875 1.6072h-5.8036l-4.1964 3.9286-1.4286 4.2857h-7.2324l-3.283-2.6634-5.6822 4.9245v2.2728l2.6517 1.5152 2.5254 7.3236 1.744 0.46732 4.0644-5.3918 7.8286-2.2728h4.672l13.132 4.7982h6.0609l4.0406-1.5152-4.4194-4.4194 4.5457-5.3033 5.6821 2.9042h5.3033l13.132 7.3236h15.784l13.132 4.672h9.7227l6.6923-3.1567h11.617l2.7779 3.1567h2.2729l2.0203-2.1466h3.4092l1.7678-1.894v-8.9651l-4.9245-6.0609 3.4093-2.5254 5.177-1.2627h6.9448l9.7227 3.1567 9.9753 10.985 7.8287 5.9346 12.753 4.9245 5.8222 2.2805 2.7902-3.1473-3.125-0.75893-8.7947-8.7946v-3.0357l3.2442-2.9273h2.1782l2.4938-2.5569v-4.451l-2.4623-2.336h-3.3777l-1.673 2.7779h-6.5029l-5.2717-2.2097-2.336-2.9042 5.1455-4.7667v-1.7046l-0.8839-0.97859h-7.7656l-2.9357-2.336v1.0733h-13.953l-21.971-5.2086z" transform="translate(0 -267.36)"/>
  <path id="path5032" class="neutralcolor" d="m1221.4 597.65-5.4769-0.0316-2.9831 1.0733 1.4363 5.2244h-11.285l-4.3836-9.2116-0.6473-2.6116-4.5982-1.0045-2.9464-3.8393-0.022-3.3259 4.0179-8.2812-2.6786-5.8259-6.5178-3.1696-2.4554 4.7098-8.0051 4.7491v7.2605l-4.2616 8.3653v10.575l-6.2187 2.8726 1.7677 4.7351 7.0711 2.8411 7.3868 14.205v7.1973l3.9774 2.5254h2.1466l4.672-6.3766h4.7351l1.9571 13.321 5.3033 9.849 1.5153 2.6516v5.4296l-1.831 1.5152v10.102l-0.7576 5.5558 8.2075 5.9346 4.23 7.1342 1.0733 8.0812 6.566 11.364 8.9651 6.1872h4.5457v-3.9144l-6.5028-16.289-3.283-5.177-7.6393-6.0609-5.1771-9.9753-3.9774-4.6088 1.5783-9.9753v-12.059h4.1038l6.9448 6.9448 5.7452 3.4093v3.0305l3.4093 5.3033h7.4499l-1.2627 3.4093v3.9143h4.2931l6.3766-7.6393 8.46-3.9143 3.283-11.49-7.8918-17.425-4.9245-6.3766-8.0181-6.9448-3.7249-4.9876 1.7046-6.3134 5.2402-4.23 2.3293-2.1618-6.0714-3.125v-2.2098l-6.0045-4.4196-3.5045-0.0893z" transform="translate(0 -267.36)"/>
  <path id="path5044" class="neutralcolor" d="m1119.4 335.58v-2.5254l-11.55-5.5139-1.6517-3.192-11.875 3.2366-2.0983-2.0982 13.125-6.4286v-3.5714l-5.1785-3.8393-6.1607-1.4286h-20.893l-4.4643-3.9286h-10.804l-6.875 8.2143h-21.607l-12.054 2.4107v2.9464l2.4107 2.0536-3.3928 2.5893h-12.768l-6.6294 6.0491 9.0401 9.933-2.5223 2.3884 3.259 3.5714 8.9732 0.13393 3.616 5.8705 25.335 14.174 4.9107 4.7768v8.4821l9.5535 10.536h7.3438l10.781 3.5714v6.2723h5.4242l2.2544 6.808-10.714 0.80357-5.1116 2.5893 8.9063 10.268h2.1205l6.9643 7.0536-1.5848 3.9509-10.603 5.9598v2.3661l7.2321 2.9688 4.6875 3.4821 2.4554 6.4732 2.5223 0.067 5.4018-5.2679 2.433 1.5179 3.5938-3.0134-2.6339-7.3214-2.5893-1.4955-0.045-2.3214 5.6027-4.8884 3.3705 2.6562h6.9867l1.6517-4.2857 4.1295-3.9286h5.7143l1.8973-1.6518-2.5-3.125v-11.853l-2.0982-2.0312v-2.2768l2.6562-2.2991h5.6027l0.625 1.3616h2.2991l3.0581-3.3036v-2.3884l2.0535-1.808 2.7233 1.6518h3.8616l1.5848-1.4732-4.442-6.0938h-4.7544v-4.7098l2.8125-1.9643v-2.7902l-6.5625-4.8214v-2.7009l2.8348-3.8393-11.228-5.2455v-3.3705l-9.5536-12.232h-2.7232l-2.567-3.5045v-1.6295l1.9197-1.7188h4.0402v-3.3036z" transform="translate(0 -267.36)"/>
  <path id="path5046" class="neutralcolor" d="m1023.1 421.46-9.849-0.94702-6.5975-5.2086h-6.0925l-18.656 5.9978h-6.3134l-2.3991 1.2943v5.4927l-3.2199 4.0722 3.0304 1.7362 2.7148 3.6302-1.7046 2.4622-2.8411 2.3675-2.1781-0.15784-8.9651-3.3461-9.9437 2.336-6.566-3.8196-6.1556-2.0203-5.177-0.88389-7.7656 2.3991-2.9673 5.619v2.2097l-1.9256 0.31567-1.9887-1.389-1.6415-0.12627-2.6516 3.1252v4.8614l4.0722 1.894 3.1252 4.1037 4.2616 3.3146 2.9358 3.7565 6.5976-3.8196h5.1455l7.4814 4.7035 2.6832 3.8196-1.7678 1.5152-2.7779-1.1364-4.1669-0.12627-2.9042 2.6516-2.3991 3.283 2.2728 5.177 9.4702 5.3033 0.75762 2.7779h2.0203l2.5254-1.7678 3.9143 2.1466 2.6516 4.4194-3.1567 3.283-2.1466-1.6415h-3.6618l0.63361 2.3647 3.0282 5.0852 4.5457 3.6618 1.894 7.8287 10.954-4.6404 23.739 8.1759 2.557 7.0395 5.1455 0.72604 7.8287-4.5141 1.4205-4.3878 4.1669-3.9143h5.6505l4.9245 4.1984h2.7148l5.2717-2.2413 4.4195-6.787h2.6516l3.6934 3.8828v4.0406h2.6832l1.5152-2.6832h6.9764l1.5468 1.1364v-6.787l-7.8603-5.4927 5.0192-4.2616 4.7667 0.59978 2.2097-0.0631 7.7024-5.398h2.5254l5.3664-5.5874 0.095-6.2819-3.2198-5.1139v-1.6415l-1.8941-1.4837 2.3992-2.4307 6.5028-3.1252 1.6099-4.3563-6.3765-5.4296-5.2086-6.7238-8.9336-4.8614-2.057-2.8176-0.1786-3.2812-3.7723-1.2723-2.1206-5.3125-10.022-3.2366-1.4286-3.75-5.5134-3.8616-3.4598-1.6964-5.9598 3.7946h-2.2768z" transform="translate(0 -267.36)"/>
  <path id="path5048" class="neutralcolor" d="m1294.8 451.92-18.577-7.2289-7.7656-5.8557-10.007-11.049-9.8016-3.1252h-6.8975l-5.1297 1.2627-3.4408 2.5096 4.9245 6.124v8.8231l-1.7993 1.9414h-3.2988l-2.2097 2.1781h-2.0835l-2.841-3.1252h-11.743l-6.5187 3.1094h-9.8016l-13.116-4.7351h-15.736l-13.148-7.2289h-5.2559l-5.7453-2.92-4.5299 5.3033 4.309 4.4036-3.9302 1.4994h-6.1082l-13.069-4.7982h-4.6719l-7.8603 2.2255-4.0722 5.3822-1.673-0.33146-3.4251 2.9831 7.15 6.1714 8.681 2.699 5.6663 8.5232 6.4398 5.4769h9.5491l9.8174 4.1984 11.68 8.9967 10.117 9.265h6.1083l7.9549 11.617h2.7148l2.2886-3.2041 3.6934-1.6415h2.4622l1.6731 1.5468v8.2075l3.3303 2.4149h3.5356l2.3675-1.7362v-6.6923l1.6889-2.336h2.0045l1.7678 2.1466v4.1038l4.5299 3.062h6.2345v-5.4138l3.6144-4.7035h4.451l3.2357-4.5772h8.1128l1.5941-2.0519-3.3146-3.6302v-5.3822h1.7836l3.4566 4.6562 2.3833-2.8253 5.7926-4.2142h4.1354l2.7779 3.9775 1.6415 3.6302h4.7193v3.9617h3.0462l4.3053 3.7439 5.0224-5.4018 4.2936 2.4786v4.7351l2.6516 4.23h1.5784l5.8715-4.7982h2.6517l5.8715 3.6618 1.2627 2.6516-1.2627 2.9042 1.7677 2.0203h4.7983l7.1973 6.3135 2.7779 7.8918 2.2097 5.7452 11.996-5.1139v-4.1038l-3.9143-8.0181-9.2808-6.4397-8.2706-4.1669v-2.9673l5.6189-2.5254 2.336-2.0834v-2.9673l-3.5987-1.4521v-2.0834l1.9572-0.50508 1.894-2.5727-2.699-3.4408h1.3417v-2.115l-1.168-1.31v-2.2413l-2.0361-1.0417-1.5468-2.92v-1.9572h2.5411l3.725-3.867v-10.717l-1.026-3.2988h-4.7824l-3.3777 1.3574-1.8467 3.1094h-3.5197l-3.2672-1.3258z" transform="translate(0 -267.36)"/>
  <path id="path5010" class="neutralcolor" d="m986.92 83.575-15.657-21.845h-10.607l-4.1669 4.1669v3.283l2.3991 4.672 10.725 6.192-3.3397 3.3397-4.8598-3.7233-13.009-2.44 1.0603 5.5692 4.9107 4.5312v2.5893l-8.9062 5.2232-7.3438 5.8929-0.3125 8.4822 2.5446 3.8839 4.7768 4.1071 0.13393 8.75 4.5089 6.3839-2.8571 4.7768v2.4554l4.7321 2.6786 5.625 0.13393 0.60036 5.7675-5.4611 0.0631-0.88389 1.3574 2.2097 1.9887 4.6404-0.0316 0.78918-1.6415 6.0294 0.97858v2.4938l-1.3258 0.88388-0.0631 4.0406 6.0609 6.4397 3.2199-4.0722v-5.6505l2.3675-1.3258h6.4082l18.561-5.9978h6.4398l6.3134 5.177 9.849 0.88389 2.9042 2.9042h2.3991l5.9346-3.7881 3.4093 1.6415 5.5558 3.9143 1.389 3.6618 10.102 3.283 2.0203 5.3033 3.9144 1.2627v3.283l2.1465 2.7779 8.9652 4.9245 5.177 6.6923 6.4397 5.6821 1.5152-2.2728h7.5762l1.0101-1.1364v-3.0304l-1.7677-3.4093h-2.5254l-2.3991-6.566-4.672-3.5355-7.3236-2.7779v-2.3991l10.733-6.0609 1.6415-3.9143-7.0711-7.0711h-2.1466l-8.9651-10.228 5.1771-2.6516 10.859-0.75762-2.2728-6.8185h-5.4296v-6.3134l-10.859-3.5355h-7.3237l-9.5964-10.607v-8.46l-4.9245-4.7982-7.7024-3.9143-17.678-10.228-3.5355-5.9346h-8.9651l-3.4093-3.5355 2.6517-2.3991-9.0914-10.102-7.1973 3.7881h-9.3439l7.0711 8.3338 6.0609 6.0609-1.0102 6.8185-5.4296 3.5355-5.1374 1.3766-0.41839-2.8918z"/>
  <g id="layer16" class="neutralcolor">
   <path id="path5012" d="m952.54 253.44h-2.9911l-15.58-8.5714v-3.9732l-2.1875 0.0446-2.4554-4.6429-5.8036 0.13393-2.1875 2.4554-6.4732-0.40179-3.8393-3.4821-5.625-3.6607-2.5-3.6161-0.71429-2.1875-6.3393-3.3928-3.6161 5.3125h-15.446l-8.4822-5.1339-5.8928-1.4286h-8.5714l-6.3393 5h-9.8214l-3.0357 5.4464h-8.3036l-3.5714 1.6072v2.2321l5.5357 2.8571v6.25l6.25 7.2322 5.5357 1.4286h3.4821l1.6071-2.4107h5.5357l3.9286 3.6607h6.9643l5.0893-3.75h5.625v15.089l-3.9286 12.143-2.2818 4.7705 5.398 11.49 0.72605 4.009 1.0417 4.9561 13.006 15.152 6.4397 12.753 7.8287 15.657 5.5558 4.0406 2.3991 6.9448 6.3134 5.6821v6.8185l1.1364 6.9448 5.177 9.5964 9.7227-1.0102 24.875-11.112 9.4702-10.733 11.112-1.7678 12.501-13.258 3.0305-6.9448 7.0711-6.1872v-4.0406l-8.7126-8.3338-8.5863-3.0305-1.389-6.0609v-4.2931l-2.0975 0.56202-8.5091 10.297-3.283 1.894h-11.112v-3.4093l2.2728-2.1466-0.63135-4.7982h-3.6618l-1.1364 4.0406h-3.7881l-4.1669-13.763-7.3236-8.0812v-5.0508l4.672-2.2728h2.2728l4.672 1.894 5.5558 10.733 13.89 8.46h5.8084l4.0406-2.7779h3.283l4.7982 4.7982 1.6415 3.6618 3.9144 1.7678 7.3236 1.389h5.9346l3.4093-1.1364v-6.4397l3.788-3.283-0.8838-5.4296-9.5965-8.7126v-11.112l-6.8185-13.385 2.9042-10.102-2.3991-7.0711-23.739-8.2075-10.985 4.7982-2.1513 2.9802z"/>
   <path id="path5014" d="m829.68 220.29h-3.1567l-2.7148 1.7046-1.2943 5.4927 1.8625 1.7678 1.7678-0.94702h5.5874l3.2199-1.8309v-1.9572l-3.1883-1.4205z"/>
  </g>
  <g id="layer17" class="neutralcolor">
   <path id="path5020" d="m1098.9 554.48-13.321-9.849v-1.7993l1.3258-2.6516v-6.1872l2.6832-2.6201-3.7249-5.6505h-10.259l-6.1872-5.3664-11.114-5.9879-1.6071-1.4286h-7.0982l-1.25 2.7678h-2.9911v-4.1518l-3.5927-3.9212h-2.6516l-4.4195 6.8185-5.177 2.3991h-2.9042l-4.7982-4.2932h-5.6821l-4.1669 4.0406-1.2627 4.2932-7.9549 4.5457-5.3349-0.78918-2.841 10.133 6.787 13.416 0.063 11.112 9.6596 8.7126 0.7261 5.398-3.6934 3.283-0.1263 6.2819h24.181l4.4194 3.6934 0.3788 3.6618 5.4296 1.6415 3.4092 4.7982h6.1872l-0.3788 1.894-1.1364 1.0102h-3.283v1.2627l6.1872 7.4499h6.4397l2.6516-3.5355v-4.672h2.6517l2.1466 4.9245v4.672l-2.0203 1.389v4.5457l3.283 9.9753 19.698 40.532 1.1365 9.849 5.6821 3.0304h2.6516l8.46-12.501v-10.859l3.283-5.3033-3.0304-8.8388v-2.9042l11.743-8.5863 2.1466-5.0508 6.9448-4.0406 2.9042-5.8084 9.2176-4.0406v-7.8287l10.228-2.1466 5.9346-3.283h4.2932l4.4194 7.4499 6.3135-2.9042v-10.733l4.1668-8.3338v-7.1973l8.1444-4.7982 2.5254-4.7982-3.4409-0.97858-3.8512-4.8929h-8.6178l-5.1771 2.2097-3.5355 6.1556-4.6404 1.1996-5.177-4.7982h-4.9561v2.6516l-1.8624 1.4205-1.389-1.6731h-6.1872l-6.6291-6.8185h-13.637l-8.7757-6.566z" transform="translate(0 -267.36)"/>
   <path id="path5026" d="m1108.9 670.67-1.3839 4.9554v7.8125l1.9643 6.6964h8.8839l1.1161-2.9911-1.2054-6.1161-5.1339-5.5804 0.4018-2.9911-4.7768-1.9643z" transform="translate(0 -267.36)"/>
  </g>
  <g id="layer18" class="neutralcolor">
   <path id="path5028" d="m1262.2 612.13h-7.3236l-4.2931 4.0406v3.5987l2.3991 3.3461h3.2199l2.6516-3.6618 1.1364-3.7249 2.336-0.75761z" transform="translate(0 -267.36)"/>
   <path id="path5030" d="m1310 582.01-3.5987 3.283-2.8411 5.5558v2.5885l3.4093 5.9346 3.7249 1.7046h1.9572l0.2525-9.2176 2.0835-0.82075v-3.9143l-1.2627-5.0508z" transform="translate(0 -267.36)"/>
   <path id="path5016" d="m1097.2 180.36-5.398 5.4296 1.673 3.3146v2.9358l-0.9786 1.2311h-7.5445l-1.5468 2.1466-1.5468 4.1984-6.5163 3.2405-2.5892 2.4107 1.9642 1.4286v1.7857l3.2143 4.9107v6.3393l-5.3571 5.625h-2.5893l-7.7679 5.4464h-2.2321l-4.6429-0.625-5.0892 4.375 7.9464 5.4464v7.0536l11.161 5.9821 6.1607 5.3572h10.268l3.9285 5.625-2.8571 2.6786v6.1607l-1.4286 2.5893v1.7857l13.393 9.9107h8.5714l8.75 6.6071h13.661l6.6965 6.7857h6.25l1.3392 1.7857 1.7858-1.25v-2.9464h4.9107l5.2678 4.8214 4.6429-1.1607 3.5714-6.1607 5.0893-2.2321h8.6607l3.75 4.9107 3.5714 0.98214 6.4286 3.2143 2.6786 5.8036-4.0179 8.2143v3.3928l2.8572 3.8393 4.6428 0.98214 0.7143 2.5893 4.375 9.2857h11.339l-1.5179-5.2679 3.0358-1.0714h5.4464l7.5-3.4822h3.4821l5.9822 4.4643v2.2321l5.9821 3.0357h9.5536l0.8928 4.0178 2.5893 2.3214h1.1607l1.0715-3.4821 8.6607-6.5179h8.9286l12.589-5.2679 7.4108-8.3928 8.0357-25.804v-4.375h-7.5893v-3.3929l3.9286-0.625v-5.0893l-8.3929-3.2143-5.1786-11.071-6.6071-2.9464v-6.4286l11.25-7.5893-8.3036-4.0178h-2.8571l-3.0357 4.1964-7.1429-5-6.0714-3.8393v-2.7679l7.6785-3.8393v-1.5179l-4.1964-3.6607h-3.0357v-3.9286h-4.7321l-1.6965-3.6607-2.7678-4.0179h-4.1072l-5.7143 4.1964-2.4107 3.0357-3.5714-4.9107h-1.7857v5.3571l3.4821 3.75-1.6071 2.0536h-8.2143l-3.125 4.4643h-4.5536l-3.4821 4.8214v5.3571h-6.3393l-4.6429-2.9464v-4.1964l-1.6071-2.2321h-2.0536l-1.6071 2.4107v6.6964l-2.3214 1.7857h-3.6608l-3.4821-2.4107v-8.3036l-1.5179-1.5178h-2.3214l-3.8393 1.6071-2.1428 3.2143h-2.9465l-3.125-4.4643-4.7321-7.1429h-6.1607l-10.179-9.2857-11.696-9.0179-9.7322-4.1964h-9.5535l-6.5179-5.4464-5.625-8.4821-8.5714-2.6786-6.6072-5.625z"/>
  </g>
  <g id="layer19" class="neutralcolor">
   <path id="path5036" d="m1383.1 480.13-14.018-4.4643-3.8392-3.8393-3.4822-2.6786h-3.3036v3.75l4.2858 4.7322v2.2321l-3.5715 3.5714v1.6071l5.625 6.25 1.8997 0.50901v-6.4912l8.011 2.3214h3.0358z" transform="translate(0 -267.36)"/>
   <path id="path5038" d="m1358 533.52h-4.2857v1.0714h-3.2143v3.3036l1.3393 2.7679h3.8393l2.3214-3.0357z" transform="translate(0 -267.36)"/>
   <path id="path5040" d="m1342.5 534.86h-2.7679l-1.4285 2.2321v2.0536l5 3.6607 0.625 7.0536h4.5535l1.0715-3.75v-4.2857l-1.9643-3.125-3.4822-1.4286z" transform="translate(0 -267.36)"/>
   <path id="path5042" d="m1373.9 493.79h-7.3215v3.3036l6.875 10.268v1.7857l-2.5892 5.4464-1.0715 1.4286h-2.6785l-9.6429 8.3929h-8.2143l-3.8393 3.8393-5.0893 0.98214-0.509 1.8997h12.741l1.3393-1.2747h7.0535l3.75 6.4286h2.8572v-7.3214h9.2857l6.25-5.3571 1.1607-5.4464-3.9286-5.8036v-8.6607l-2.5-6.1607z" transform="translate(0 -267.36)"/>
  </g>
  <g id="layer20" class="neutralcolor">
   <path id="path5022" d="m1426.5 358.25-10.625-6.5178-15.179-0.71429-10.446-5.2679-32.411-5.3571h-9.6428l4.1964 4.5536-1.5178 2.2322-8.125-4.0179-8.2143-1.4286h-10.446l-4.5953 1.3716v2.2097l-5.619 2.8726v2.3044h4.2616l4.4194 4.7035h-13.11v6.7613l2.3214 2.0536h-12.455l-2.1875 2.5446h-5.3349l-2.2321 2.0982 1.0937 3.4821 5.134 4.6429h-16.451l-3.817 6.2277 4.375 5.3348-2.7902 3.192h-5.5134l-1.6517 2.6116h-5.8483l-3.6383 3.192v5.1339l5.0446 4.0402v5.2232l2.8571 2.4107h7.831l1.0101 0.99744v1.6415l-5.3033 4.8614 2.336 2.9042 5.3033 2.2097h6.5029l1.7046-2.841h3.283l2.5254 2.3991v4.4194l-2.5254 2.5254h-2.1466l-3.283 3.0305v2.9673l8.8389 8.7757 3.1567 0.75761-2.9042 3.1567 5.9978 4.9876 3.283 1.3258h3.4724l1.894-3.0936 3.3461-1.4521h4.7983l1.1364 3.283v5.1139 5.6912l-3.7172 3.8393h-2.6786v1.9643l1.6072 2.9464 2.0536 0.98214v2.2321l1.25 1.25v2.2322h-1.6072l2.9464 3.6607 1.3393-4.1964h6.4286l0.5357 1.4286h2.0536l5.4464-3.75 3.5714-13.482 1.9643-0.89286v-5l-0.7143-6.25v-5l-2.8571-7.4107-5.8929-4.0179-2.6785-7.1429-12.589-10.446h-3.125l-3.125 2.4107h-3.3929l-13.571-5.625 6.0714-13.839 5.2679-8.3928h19.286l5.2679-2.5h4.4642l6.6965 4.0178 8.5714-1.25v-12.5l3.5714-1.7857h3.2143l10 5h3.0357l1.25-1.7857v-5.1786l3.2143-0.89285 3.5714 2.3214 2.8572 5.1786-2.6786 6.4286-4.2857 13.393 8.2143 10.714 6.25 7.6786 14.286 13.036 6.7857-1.6072-2.3214-5.1786 1.25-10.536-4.4643-12.857-10.714-5-5.1786-8.3929 17.143-6.9643 6.7857 3.3929 7.3214-7.3214 5.5358-4.1071h9.6428v-2.6786l-23.036-8.0357v-2.6786l5.8929 1.4286h3.3928l-4.0115-5.0406 1.7046-1.894 10.859 4.1669 3.0305-1.5784 3.7249 2.5885 12.627 2.9673 4.2301-1.0733v-2.5885l-8.8389-5.8084-5.0529-2.9173z" transform="translate(0 -267.36)"/>
   <path id="path5034" d="m1349.9 441.92-7.5-5h-2.1428l-2.5893-4.4643-4.375-7.0536h-5.625l0.089 1.5179 13.75 16.607 4.4642 3.0357 5.8929 14.732 4.1964 4.1071h6.0715l-1.4286-4.375-8.9286-7.8571v-4.1071h1.6072l0.9821 1.4286h1.5179v-3.0357z" transform="translate(0 -267.36)"/>
  </g>
 </g>
 <g id="SouthAmerica">
  <path id="path4916" class="neutralcolor" d="m288.48 416.38 1.9367 3.8247v6.3134l1.894 0.50508v4.4194l-2.1466 9.2176-4.4194 3.283-3.6618 5.3033 2.0203 2.5254 10.228 5.4296h5.0508l5.0508 1.894 3.7881 6.9448 4.672 3.1567 5.5558 2.1466h7.3236l2.3991 2.7779-2.3991 5.3033 3.1567 3.6618 2.1466-4.9245 2.5254-11.238-4.5457-6.6923v-2.2728l4.4194-3.283-2.9042-4.5457 0.46732-1.744 3.0682-1.9178 2.4509 0.65672 3.1049 0.98478 2.1466-2.7779h1.7678l2.1466 5.8084h2.6516l1.894 3.283 1.894-1.7678 6.3135-2.2728 3.6618-4.1669-2.5254-4.2932-1.6415-3.6618 0.75761-3.7881h4.9245l1.0102 2.6516h2.0203l11.743-7.7024 3.9143 2.7779-2.7779 8.0812v3.0305l4.1669 7.4499h3.4093l6.8185-4.1669h5.9346l2.9042-2.2728h5.177l10.354 1.1364 6.5246-11.301-6.1981-6.1981-7.2713-3.0828h-4.5457-9.0914l-9.5964-7.8287-3.4093-6.566-19.698-10.607h-5.0508-10.607l-9.4702-6.3134-5.3033-2.7779h-3.1567l-2.9042 3.7881-2.5254 0.25254 0.75762 6.8185-3.283 5.5558-3.1567-3.283 1.2627-3.5355v-6.4397l4.4194-4.5457h-6.4397l-5.2402 5.177h-5.6821l-4.8614 4.1038-3.0305 7.6393-6.1301 3.7256z"/>
  <path id="path4918" class="neutralcolor" d="m284.14 451.76-1.9256-2.5096-1.31 0.99437-3.6692 4.8444-5.1786 10v3.3036l1.3393 3.6607h3.75l1.6964 1.0714-2.4107 1.5179-0.17857 1.9643-5.4464 5.8929v2.6786l1.4286 0.35714 0.89286 6.9643 4.0179 1.6964 3.3929 3.75 6.6964 13.571 2.1429 8.3036 9.0179 9.1964 6.5179 14.911 20.357 12.232 6.4286 7.0536 5.1786-5.2679 5.2679 6.0714 2.5 12.679 4.1964 5 2.7678 5.625 4.1964-2.7679h13.929l4.5536-4.1071 1.6964 0.89286v2.4107l7.4107 7.0536 17.857 7.4107 1.9643 3.4821v1.6071l-3.0357 4.2857v4.2857l6.5179 1.6964h5.5357l7.3214-7.5v-4.8214l1.0714-0.625v-3.8393l-4.6429-5.2678-11.964-6.3393-3.75-1.6071-0.53572-8.3929-4.9107-6.7857 3.125-2.0536 1.875-4.1964v-3.3036l-3.8393-4.0179-1.4286-5.5357-8.8393-1.4286-2.3214-1.6071-2.5-10.089-11.429-5.7143-10.179-2.2321-3.6607-4.9107-2.6786-10.089h-2.2321l-11.429 4.6429-3.3929 4.2857-5.3571-2.5-3.0357-6.875h-3.2143l-0.89286 1.5178h-2.2321l-2.7679-3.8393-6.4286-8.3929v-6.7857l3.02-8.99 10.357-4.2857 1.4903-1.2727-0.94701-1.2627 2.2097-5.3033-2.1781-2.7464h-7.3236l-5.7452-2.2413-4.4826-3.0936-3.8512-6.9132-5.1455-1.9572-4.9876 0.0947z"/>
  <path id="path4920" class="neutralcolor" d="m418.35 445.42-10.402-1.1384h-5.0893l-2.9018 2.2991h-5.9821l-6.808 4.1295h-3.4152l-4.1964-7.3884v-2.9688l2.7679-8.1696-3.8839-2.8348-11.696 7.7232h-1.9866l-1.0714-2.567h-5l-0.75893 3.817 4.1964 7.8795-3.6384 4.1295-6.3393 2.3214-1.8304 1.6071-1.8527-3.0804h-2.6339l-2.1205-5.8705h-1.8973l-2.1205 2.6786-5.5804-1.6071-2.9688 1.942-0.53571 1.7857 2.7009 4.4643-4.1964 3.3036-0.0223 2.3884 4.5089 6.5402-2.567 11.406-2.0536 4.5982-2.0982-2.1652-1.4955 1.25-10.357 4.2411-3.0357 9.1071v6.7857l9.1964 12.165h2.2321l0.9375-1.5179h3.2366l3.058 6.9866 5.2455 2.4107 3.3482-4.2634 11.451-4.5759h2.2768l2.7009 9.9554 3.7277 4.9777 10.045 2.1875 11.473 5.7589 2.5893 10.112 2.1875 1.6071 8.9062 1.4955 1.4509 5.4911 3.7946 3.9286v3.3259l-1.8527 4.1964-3.125 2.1205 4.8438 6.808 0.58036 8.2812 15.737 7.9911 4.7321 5.2679-0.0777 3.8114 1.8782 1.2311 2.3513 5.0914v1.7857l-2.7679 2.7679-3.75 5.8929-1.4222-0.38107-4.8278 4.4882-1.7857 2.6786v1.9643l3.2143 1.7857v1.6072l3.3929 2.3214 7.1428 3.5714 3.9286 3.9286h1.7857l5.3571 5.7143 3.9286-6.6071 3.75-3.0357 3.2143-4.2857v-7.3214l3.9286-6.0714v-4.6429l1.9643-1.4286v-2.8571l-2.6786-4.1071v-3.2143l4.4643-3.5714 4.2857-3.9286 8.0357-2.3214 3.5714-4.1071h10.179l4.1071-2.3214 6.25-15.357 3.75-18.929v-18.214l4.6429-4.8214 7.5-13.214 4.6429-5.5357 1.9643-8.5714 1.4286-1.7857v-2.1429l-1.9643-8.2143-8.37-2.17-7.68-3.93-6.07-4.64-1.25-3.2143-15.893-2.1429h-5.8928l-4.6429 3.75-1.6071-1.25-0.35715-3.3929 1.25-2.8571-10.714-6.0714h-2.6786l-7.1429 5.8929-8.0357 1.0714v-1.9643l3.2143-0.71429 4.2857-4.6428v-3.5714l-4.8214-1.4286-11.607 10h-2.6786l-1.0714-1.6072 5.7143-8.2143 2.8571-0.71429 4.4643-5.3571-0.17857-2.1429-8.3929-14.955z"/>
  <g id="layer9" class="neutralcolor">
   <path id="path4922" d="m429.82 639.24h-1.6518l-3.9955-3.9509-7.1652-3.5268-3.3705-2.2545v-1.6741l-3.2366-1.7411v-2.0089l1.7411-2.7009 4.8661-4.4643 1.3839 0.35715 3.75-5.8929 2.8348-2.7455v-1.7857l-2.3884-5.0446-1.942-1.183-1.0268 0.55804v4.7768l-7.3438 7.5446h-5.558l-6.4955-1.6071v-4.375l2.9018-4.2634v-1.5848l-1.9643-3.4822-17.701-7.4554-7.4554-6.9866v-2.4554l-1.7188-0.82589-4.4866 3.9732-14.018 0.0893-4.1518 2.7679-2.7455-5.558-4.1964-5.0223-2.5223-12.768-5.2679-5.9598-5.2009 5.067 2.6562 2.6562 1.5402 6.942 1.3393 7.433v12.054l-1.7857 0.44643v4.2857l3.4821 3.75v6.1607l-1.7857 12.946 2.5893 17.054 2.6786 25.982-1.1607 7.5v3.3036l3.3036 4.1964-0.89285 2.3214v4.4643l1.3393 4.0179 10.179 9.0179v2.1428l-1.6964 0.89286v2.9464l2.6786 3.8393 2.9464 1.6072v3.5714l-2.0536 4.5536-4.8214 1.4286v3.0357l5.2679 1.5179 5.0893 10.714 7.6786 13.482 5.7143 2.8571 1.6964 5h2.3214l1.0714-1.25h2.0536l3.6607 2.2321h2.8571v-3.3036h2.2321l2.2321-1.875-3.75-4.7321v-3.3929l6.1607-12.321-1.48-5.47-3.2143-1.6072-5.625-6.3393v-2.1429l5.9821-6.25v-6.5179l2.7679-2.5v-1.3393l-4.7322-1.5179-3.9286-5.3571v-3.4822h5.8036l3.3036 3.125h2.2322l2.3214-4.8214v-2.6786l-2.4107-2.3214v-2.1429l2.3214-1.7857h10.089l7.5-3.3036 2.7678-5.0893-1.1607-6.3393-4.1071-6.1607-6.25-3.0357v-2.5893h5.8036l7.1428 3.8393h5.9822l3.75-2.5 3.9062-7.3214z"/>
   <path id="path4932" d="m394.02 754.33-1.5625 2.2321-1.6071 3.2589v2.7232l4.1518 4.2857h4.5536l2.6786 2.0982h5.6696l11.518-0.71428v-2.5446l-7.7678-1.1161-14.241-10.268z"/>
  </g>
 </g>
 <g id="NorthAmerica">
  <path id="path4873" class="neutralcolor" d="m176.79 75.357-13.04-2.5-19.29-2.678-14.46-1.786l-8.9286 0.17857-11.25 3.0357-6.7857 1.0714-12.5 5-10.357 0.35714-5.7143 2.3214-0.53571 2.8571 4.6429 4.6429-5.3571 3.9286-6.4286 0.17857-2.5-1.0714h-4.8214l-5.7143 1.0714-6.7857 5.1786 0.71429 0.71428 3.5714 1.0714 7.5 1.4286 4.2857-3.0357h3.2143l1.0714 1.7857-6.6071 6.25-7.1429 1.4286-13.929 1.7857-6.784 3.93-0.536 3.93-0.535 6.07-6.786 3.93v0.71429l5.3571 2.8571 4.2857-0.35714 3.0357-1.7857 1.6071 1.0714-5.3571 3.9286-24.643 11.25-0.71429 2.1429h5.8929l6.6071-2.8571 15.536-6.4286 7.8571-3.9286 7.5-1.7857 7.8571-4.6429 8.2143-3.9286 4.6429-0.17857 4.2857 1.4286 0.71429-0.17857 4.1071-0.71429 6.25-3.0357 4.8214-1.9643h1.9643l8.9286 2.6786 9.1071 1.7857 4.4643 1.0714 6.6071 5 5.5357 1.4286 5.7143 7.3214-1.25 4.2857 1.7857 6.9643 2.0453-0.0307 1.4521-2.1466 1.2627-3.283-2.2097-2.2097 0.0631-2.0203 2.5254-5.1139v-2.2097l-1.5152-2.6516-3.5987-3.0936-5.2402-0.18941-0.88388 0.94702h-3.0936l-1.2627-2.2097-0.0631-1.2627-3.8512-3.7249z"/>
  <path id="path4885" class="neutralcolor" d="m125.26 123.1 0.0316 1.2311 1.2943 2.1466 3.062 0.0631 0.85231-0.91546 5.2402 0.22098 3.5987 2.9673 1.5468 2.6832v2.2413l-2.5254 5.1139-0.0947 2.0519 2.1781 2.2097-1.2627 3.2199-1.3574 2.0834-1.9572 0.0631-2.2728 3.283-2.7779 3.1567 0.12627 3.1567 2.1466 3.5355-3.283 4.1669 1.389 3.0305 2.7779 2.3991 2.6516 0.63134 2.6516 3.283 2.0203 5.9346 1.1364 1.389h96.722l35.735-59.319z"/>
  <path id="path4887" class="neutralcolor" d="m274.75 123.1-35.592 59.286h27.667l1.25-1.6741 1.6964 0.58036 6.2054 4.1518 4.5536 1.1607 3.7054 0.89286 5.6696-0.9375 1.6518-0.89286 6.7857-1.4286 0.98214-1.2946 2.6339-0.0893 0.58035 1.3839 3.2589 0.22321 1.5625 3.125 2.1875 1.6072 0.0447 1.3393-1.0268 0.58036v4.0625l3.8839 3.8839h2.6786l2.1875-1.3393 0.75893-1.2946h1.7411l0.0446 1.1607h2.2768l2.5 2.9911v5.4018l-1.2054 1.1161h-2.0536l-0.40179-1.0268h-3.2589l-2.1429 4.375-4.1964 2.1428-4.5536 3.8839v2.2768l2.1875 0.17857 5.4911-2.2321 0.9375-1.1607h1.8304l2.4107 2.2322 3.3036-3.5714h1.8304l1.4286-1.9196v-1.0714l3.125-1.2946 4.4643-0.98214 1.0714-1.1607 3.5268 0.0446 1.5625 1.3393 3.8393-3.5714h3.2143l3.3482-2.4554-17.188-8.5268v-5.3988l9.7956-18.688-2.9673-2.0203v-2.2097l-1.5152-2.5885h-1.0733v-2.0834l1.5152-0.63135 1.3258-5.4927 1.389-3.5355 0.0631-3.5355h-4.8614l-6.3766-2.2097-3.1567-2.7148-2.5254-1.0102h-4.7982l-5.8084-2.5885-4.1669-4.672-0.94702-4.3563h-2.3991l-1.894-0.94702v-1.1996l1.6415-0.0631 3.0093-5.5061z"/>
  <path id="path4889" class="neutralcolor" d="m333.24 189.26v5.3125l16.987 8.4821h14.379l4.7982-1.2317v-1.894l7.3236-7.1973h1.9572l4.23-2.2097h2.6516v2.5885l1.9572 0.56821v1.1996l-1.9572 2.1466-1.2627 0.88389v3.0304l1.5152 0.63135v2.2097h1.4521l2.1466-1.3258 5.177-0.88388 0.56821-1.4521h4.4194l1.5784 1.389v0.94702l-1.2627 0.94702-3.7881 0.94702-4.7351 1.7678-2.9673 2.5885v1.5784h6.1872l7.6393-3.8512 5.0508-1.0102 4.1669-1.6415 9.2176-6.0609 2.9673-1.1364v-2.841l-0.88388-1.4521h-2.841l-1.1996 2.4622-6.7554 4.9876h-5.4927l3.6618-3.0936v-2.1466h-3.8512l-0.31567 1.4521h-1.7046l-1.9572-2.336-3.7881-1.389v-1.7678l3.2199-2.5254 3.4093-3.1567 1.5784-3.6618h-9.849l-14.142 6.8185h-2.3991l-0.1894-2.3991 4.8614-2.9042 15.279-7.0079 5.4927-1.4521h9.9753l2.0203 1.2627h5.7452l17.678-5.177 10.733-6.1872 3.4093-5.5558v-1.3258l-3.9775-3.8512h-7.3868l-3.2199 2.7148h-1.9572l-1.1364-1.4521 3.0936-3.0305 0.88389-2.0834-4.844-8.39 2.2555-3.2268v-2.9042l-1.7678-2.336v-6.6291h-2.3991l0.12627-1.4521 1.3258-0.50508 0.63134-1.389-0.37881-0.82075-1.2627-0.3788-2.336 1.389-6.5029 6.6291-8.2075 3.9143h-1.389l-4.4194-4.4826 2.6516-5.3664-0.94702-6.124-8.7757-4.7982-6.124-1.5784h-7.8287l-4.9876 2.336-4.23 10.48-2.9673 2.0834h-1.894l-2.6516 2.9673v5.2402l1.1996 1.1364v2.841l-3.9143 3.0305v2.3991l-2.2728 2.2728-12.185 5.3033-2.7779 2.5885-3.9143 11.743-7.8699 5.0972z"/>
  <path id="path4891" class="neutralcolor" d="m142.52 182.41-3.2143 5.8482-3.2143 3.817h-1.0268l-0.78125-1.2946v-1.5625h1.2723v-2.3214h-7.1652l-1.1161 4.0848-6.0714 11.83-8.7946 9.4196-3.4821 10.446-6.6964 6.0714v2.5l-1.1607 5.3571 2.3214 6.875 2.6786 20.357 6.3393 2.6786 3.8393 6.9643h13.214l12.857 7.3661h14.196l2.8571-2.8125h6.5179l1.0714-1.25h15.893l8.125-26.339h46.161l4.9107-12.321v-2.8571l-5.5357-13.304v-3.5714l6.5178-9.1964v-7.9464l2.5893-1.9643 1.25-4.8214v-12.052z"/>
  <path id="path4895" class="neutralcolor" d="m129.52 273.52h-13.164l0.69448 4.7982-1.389 0.66291v6.345l6.3134 10.038v1.7362l-2.4622 2.4622v3.6934l8.7126 7.1973v2.7464l-1.2627 0.88388v3.8196l3.7881 2.841v2.1466l3.9775 3.7881h3.3777v-2.2097l-5.2717-7.4499-1.2943-6.2819v-7.4183l-8.7757-17.52v-2.9989l2.6832-3.5355h2.5254l4.0722 2.557v5.9662l2.5885 8.7126 6.6607 9.9437 1.6415 2.3991-0.75762 1.2627v2.9337l8.6246 7.3214v2.1429l4.0179 4.7321 0.89286 5 1.5178 0.53572v3.6607l-2.6786 6.25v2.5893l9.0179 8.75 31.43 14.74h4.0179l6.0714-2.4107 0.26785-1.25h2.6786l4.2857 3.0357 4.8214 3.8393v1.875l4.4643 3.8393 10.893 5h6.1607l0.26786-1.4286h1.7857l1.6071 5.0893 1.25 2.7679 6.3393 5.0893v1.3393l-1.6071 1.3393v1.4286l1.0714 2.9464 5.3571 1.6964 6.875 7.6786h4.1072l4.375 3.0357 5.7143 1.7857 2.4107-2.0536-2.0536-1.5179v-1.5179l4.2857-2.5h5.1786l3.6607 2.6786-2.2322 3.3036v1.875l1.3393 0.80358 6.4286-6.4286-3.4821-2.8571h-2.2322l-1.1607-2.5893h-8.0357l-7.4107 3.8393h-1.25l-7.8571-7.0536-3.4822-4.1964v-6.0714l3.9286-16.071v-3.5714l-1.4286-3.125-4.8214-0.98215h-7.5893l-10.625 1.25-2.2321-1.25 0.26785-2.2321 13.3-25.18v-2.9464l-3.068-1.7713h-6.6642l-4.5536 1.7713-4.0179 4.0179-4.2857 8.75-6.875 2.3214-10.893 2.6786-5.2678-2.1429-3.125-5.2679-5.0893-14.821 2.2321-9.0178 3.6607-9.2857 0.11497-4.1837-4.23 0.18941-3.1252-2.9358-0.0631-2.557-2.557-4.1353v-4.23l-6.124-7.0395h-3.4408l-5.2717 3.504-4.8614-3.3777-1.1048-6.6291-5.9662-4.8929h-6.7554l-2.8095 2.7779h-14.205z"/>
  <path id="path4913" class="neutralcolor" d="m517.96 22.714-21.087 10.354-24.749 2.7779v6.8185l8.2075 2.3991h21.213l9.0914 11.364 1.0102 7.7024 5.6821 2.9042v9.7227l-5.3033 3.7881-7.4499 4.0406-3.9143 6.566v2.7779l2.9042 2.6516v2.2728l-2.9042 3.1567v4.0406l2.6516 6.566 10.102 5.9346 4.0406 3.1567h5.0508l4.4194-2.2728 10.354-16.415 7.8287-6.566 22.855-4.7982 16.794-10.985h6.566 10.607l18.183-4.1669-2.5254-3.7881-9.4702 0.88388-2.1466-1.5152 1.0102-2.0203h4.0406l-2.3991-3.283 3.4093-2.0203 3.6618 1.5152 5.4296 4.5457h6.6923l-3.6618-5.6821-6.4397-2.5254-3.5355-3.4093 1.5152-2.0203h10.354l9.5964-4.9245 8.9651-11.364-1.7678-3.4093 7.1973-8.46 15.152-1.2627 4.2932-4.4194h-18.94l-6.6923-3.5355-16.794-2.3991h-7.8287l-5.8084 2.5254-19.951-1.2627-35.482 6.1872h-10.228l-10.228-2.7779z"/>
  <g id="layer7" class="neutralcolor">
   <path id="path4875" d="m121.47 119.4 3.7249 3.6934 184.27 0.11674 2.6728-3.2735 6.124-3.5987 10.733-4.8614 7.4499-2.6516 0.18941-4.6088 1.2627-1.7046 1.7046-0.0631 0.50508 1.3258h5.9346l12.627-3.5355v-1.3258l-4.7982-4.3563 0.18941-0.94702 1.5784-1.1364 1.5152 0.06314 3.1567 2.3991 3.2199 0.06313 5.8084-3.283 15.531-0.06314 4.8614-2.7779 3.2199-4.4826 1.1996-1.389 2.4622-0.25254 0.12627-2.0203 1.389-0.1894 0.0631-3.2199-2.7779-1.389-8.8388-0.06313-6.7554 7.513-7.4499 3.7881-2.0203 0.1894-1.7678-1.0102 0.25254-2.3991 3.9775-3.5355v-1.5152l-2.6516-0.88388-2.2097-0.1894-0.69448 0.88388-2.2097 0.25254-2.2728-4.4194v-1.4521l2.4622-2.5885 0.12627-3.0936-1.9572-1.4521-2.9042-0.06314-11.996 6.6923-0.0631 1.1364 3.9144 2.8411-0.12627 2.8411-3.7881 2.8411-4.672-0.06314-7.6393 6.3766-1.6415-0.25254-4.3563-4.6088-6.2503-0.1894-12.69-0.12627-4.1669-2.2097-2.2097-0.12627-10.48 3.9143-4.5457 5.8715-0.82075-0.06313-3.8512-6.8185-5.2402-0.50508-11.175 1.4521-1.7678-1.5784 0.25254-1.1364 2.6516-0.63134 0.50508-1.5784-6.8817-0.50508-12.248-4.2931-9.6596-0.37881-1.0733 1.7046-3.3461-0.06314-5.6821-4.1669-2.5254-0.06313-2.0203 2.0834-3.9144 0.69448-0.82074-1.1996-4.672-0.1894-14.773 4.4826-15.91 0.63135-10.291-3.2199z"/>
   <path id="path4877" d="m338.72 74.61 5.619 0.25254 2.1466 1.1996 0.18941 1.7678-7.7024 3.8512h-2.9042l-2.1466-2.6517 0.12627-1.8309z"/>
   <path id="path4879" d="m312.83 79.03 4.672 0.06313 10.796-4.7351 0.69448-2.0203-7.3236-3.7881 4.6088-7.3236 0.31568-3.2199-5.619 0.1894-5.1139 6.4397-1.7046 0.1894-1.3258-1.3258 0.0631-5.177-1.6415-0.12627-3.8512 4.0406-2.336 0.06313-8.7757-2.4622-0.94702-3.5355-12.816-4.0406-6.1872-0.25254-24.054 11.427 4.7351 6.0609 14.647-6.4397 1.4521-0.06313 5.6821 2.9042-0.44194 2.1466-5.9978 0.50508-0.0631 1.5152 13.321 0.50508v2.8411l-15.973-0.06313 0.12626 1.7046 9.849 5.177 7.955 1.0733 6.0609 0.12627 9.2808-4.7982 3.9775-0.06313z"/>
   <path id="path4881" d="m356.08 63.877 3.9143-5.2402 1.5784-3.9143h-3.8512l-8.8388 2.8411-1.9572 3.6618-2.5254-0.1894-0.44194-1.5152-5.4927 0.12627 0.0631 1.9572 5.8715 2.5885 0.12627 2.3991 5.3664 0.31567z"/>
   <path id="path4883" d="m370.66 60.342 7.8918-0.12627 3.9775-2.4622 0.0631-1.5784-2.7779-1.389-5.8084 0.06313-4.9245 1.3258-5.8084 4.4194 1.9572 2.336z"/>
  </g>
  <g id="layer8" class="neutralcolor">
   <path id="path4893" d="m246.88 182.46 0.0893 11.92-1.3393 4.8214-2.5 2.0089v7.9464l-6.4732 9.0625v3.7054l5.4464 13.17v2.9911l-4.9554 12.321h-45.971l-8.2391 26.302h-15.878l-1.0102 1.2311 6.0609 4.9876 1.0417 6.6291 4.8929 3.4408 5.2717-3.5671h3.4408l6.1872 7.0395v4.1669l2.5254 4.1669v2.5254l3.1567 2.9042h4.1669l0.88389-1.2627v-4.672l3.1567-5.177 9.2176-3.7881 4.2931-3.7881 6.566-2.5254 1.1364-1.0102h5.177l5.9346 3.4093 4.9245 1.1364 3.283-0.12627 3.283-6.3134 8.5863-1.7678 4.7982 1.1364 4.9245 3.1567 3.7881-0.12627 0.12627-0.75761h3.283l4.4194 4.4194v4.672l-0.88388 1.7678v5.177l4.4194 10.102 2.7779 1.2627 0.85625 0.22943 3.4369-6.4166v-4.9245l-2.6516-10.48v-9.3439l8.3338-10.228 4.2932-1.5152 9.4702-6.9448 6.8185-3.283 6.0609-5.8084 1.2627-15.784 16.162-8.3338 4.2932-6.9448h5.4296l7.955-2.6516 6.0609-6.8185 10.985-7.1973 10.196-4.9561v-2.1466l-1.4205-0.66292v-3.062l1.1048-0.91545 1.894-2.0519 0.0316-1.2627-1.7678-0.59977v-2.5885h-2.7148l-4.2616 2.2413h-1.9256l-7.292 7.1658v1.7993l-4.8298 1.3574h-14.584l-3.0305 2.4938h-3.1567l-3.8512 3.504-2.8095 2.9989-2.6832 1.2311h-6.4397l-1.894-1.0102-1.3258 1.8625h-1.9887l-3.1883 3.4724-1.0733 2.115-3.0304 1.1048-4.7035 2.4307h-5.4296v-2.6516l1.389-1.9887v-2.1466l4.5141-3.8828h-3.504l-2.7779-2.8095 1.6099-2.9673 3.6934-2.6201v-3.3777h-6.8817l-6.1872 3.8196-4.8614 6.5976-3.9459 9.6596-4.1984 2.7148h-1.9887l-1.8625-3.9143 3.4408-3.4408 4.009-10.764 5.9662-4.0722 7.3236-2.2413v-1.4205h5.2086v-1.6731l-1.4205-1.4205h-3.9143v1.389h-3.062l-5.3664-4.0406h-4.0406l-2.5885 1.4205-4.4194 2.3991h-4.009v-4.009l6.2188-2.8411 0.41037-1.4521-8.2075-2.0519-6.0925-4.1353-1.7993-0.53664-1.3258 1.4837z"/>
   <path id="path4905" d="m286.06 327.27h-14.773l-7.6393 3.5355v3.4724h2.9673l5.619-2.7779 0.69448-1.5152h3.9775l5.4927 2.4622 7.6393 5.177 5.3664 2.3991v1.1996l-1.9572 1.2627v1.5152h10.922l1.0733 1.3258h4.2931l5.3664-0.94701v-1.894l-8.8388-5.177-5.0508-1.6415-2.1466-3.4724z"/>
   <path id="path4907" d="m290.61 351.52v4.1669l2.5885 1.0733 8.3338 0.31568v-2.2097l-3.5987-2.8411z"/>
   <path id="path4909" d="m319.4 345.39v2.0203l2.7148 2.5254-1.389 1.8309h-11.112v2.4622l4.4826 1.3258h4.6088l0.69448-1.5152h3.7881l3.0305 2.7148h1.9572l3.9775-1.2627 10.543-2.5254v-2.0203l-8.9651-5.2402z"/>
   <path id="path4911" d="m348.57 351.96-1.389 1.389v1.894l1.4521 1.2627h6.5028l2.3991-1.1364v-1.7678l-2.336-1.5152z"/>
  </g>
 </g>
</svg>
